<svg xml:space="preserve" style="max-height: 500px" viewBox="606.162 65.975 117 149" y="0px" x="0px" xmlns:xlink="http://www.w3.org/1999/xlink" xmlns="http://www.w3.org/2000/svg" version="1.1" width="117" height="149">
<g id="BACKGROUND">
</g>
<g id="OBJECTS">
	<g>
		<path d="M381.542,181.302c13.301,0.549,14.643-9.966,14.585-14.647c-4.205-1.33-8.927-2.092-14.23-2.092&#10;&#9;&#9;&#9;c-5.155,0-9.824,0.723-14.052,1.985C367.524,170.931,368.293,180.756,381.542,181.302z" style="fill:#C66767;"/>
		<path d="M396.127,166.655c0.058,4.681-1.284,15.196-14.585,14.647&#10;&#9;&#9;&#9;c-13.249-0.546-14.018-10.371-13.697-14.754c-30.353,9.058-37.904,46.091-37.904,46.091h99.615&#10;&#9;&#9;&#9;C429.555,212.639,425.351,175.898,396.127,166.655z" style="fill:#EFCA6F;"/>
		<path d="M354.154,98.506c0,0-9.693,9.961,0,19.995c9.693,10.034,56.922-0.497,56.922-0.497&#10;&#9;&#9;&#9;s7.032-13.796-4.276-23.584c-11.308-9.788-37.631-6.747-37.916-6.747S354.154,98.506,354.154,98.506z" style="fill:#373C44;"/>
		<circle r="7.822" cy="122.168" cx="351.309" style="fill:#CE8282;"/>
		<circle r="7.822" cy="122.168" cx="409.39" style="fill:#CE8282;"/>
		<path d="M390.45,150.564l-1.322-17.375l-13.567,1.862l-2.217,25.4&#10;&#9;&#9;&#9;C377.822,159.913,385.114,157.856,390.45,150.564z" style="fill:#D19582;"/>
		<path d="M353.502,114.724c-0.253,4.158-0.067,5.406,0.392,9.549c0.909,8.207,4.832,15.352,12.279,19.323&#10;&#9;&#9;&#9;c7.471,3.984,17.644,5.397,25.593,2.125c6.159-2.535,10.915-7.055,13.352-13.146c2.776-6.941,2.806-15.817,2.431-23.312&#10;&#9;&#9;&#9;c-1.388-27.764-23.996-27.354-23.996-27.354S353.388,79.586,353.502,114.724z" style="fill:#E5B5A3;"/>
		<path d="M373.344,160.45l-0.976,11.178c0,0,0.399,5.586,9.444,6.65c9.045,1.064,10.109-8.38,10.109-8.38&#10;&#9;&#9;&#9;l-1.471-19.335C385.114,157.856,377.822,159.913,373.344,160.45z" style="fill:#E5B5A3;"/>
		<path d="M369.509,120.309c0,1.533-0.622,2.776-1.388,2.776s-1.388-1.243-1.388-2.776&#10;&#9;&#9;&#9;c0-1.533,0.621-2.776,1.388-2.776S369.509,118.776,369.509,120.309z" style="fill:#373C44;"/>
		<path d="M395.207,120.78c0,1.533-0.621,2.776-1.388,2.776c-0.767,0-1.388-1.243-1.388-2.776&#10;&#9;&#9;&#9;c0-1.533,0.621-2.776,1.388-2.776C394.585,118.003,395.207,119.246,395.207,120.78z" style="fill:#373C44;"/>
		<g>
			<path d="M380.776,122.168c-0.556,0.349-1.1,0.689-1.612,1.035c-0.484,0.33-1.041,0.787-1.059,1.119&#10;&#9;&#9;&#9;&#9;c-0.016,0.139,0.058,0.302,0.293,0.5c0.198,0.193,0.426,0.336,0.676,0.42c0.501,0.158,1.135,0.024,1.703-0.298&#10;&#9;&#9;&#9;&#9;c-0.366,0.53-1.039,0.975-1.819,0.871c-0.384-0.04-0.727-0.234-1.017-0.451c-0.264-0.182-0.63-0.604-0.582-1.112&#10;&#9;&#9;&#9;&#9;c0.069-0.491,0.369-0.801,0.636-1.025c0.285-0.217,0.573-0.401,0.882-0.532C379.482,122.411,380.123,122.245,380.776,122.168z" style="fill:#373C44;"/>
		</g>
		<g>
			<path d="M376.918,128.68c0.619,0.412,1.261,0.744,1.902,1.022c0.647,0.264,1.311,0.45,1.977,0.472&#10;&#9;&#9;&#9;&#9;c0.664,0.043,1.331-0.086,1.953-0.374c0.639-0.26,1.214-0.686,1.825-1.121c-0.198,0.311-0.416,0.621-0.662,0.909&#10;&#9;&#9;&#9;&#9;c-0.279,0.254-0.54,0.548-0.889,0.729c-0.647,0.439-1.466,0.645-2.259,0.606C379.16,130.832,377.757,129.9,376.918,128.68z" style="fill:#373C44;"/>
		</g>
		<circle r="2.922" cy="127.771" cx="366.733" style="fill:#CE8282;"/>
		<circle r="2.922" cy="128.68" cx="393.819" style="fill:#CE8282;"/>
		<path d="M378.264,131.936c0,0,4.166,1.252,6.024,0c0,4.077-0.268,7.885-1.502,7.563&#10;&#9;&#9;&#9;c-1.234-0.322-1.207-2.307-1.207-2.307s0.134,3.701-1.261,3.379c-1.395-0.322-1.448-4.559-1.448-4.559s0,2.628-1.609,1.985&#10;&#9;&#9;&#9;C375.651,137.354,378.264,131.936,378.264,131.936z" style="fill:#373C44;"/>
		<path d="M374.223,120.78c0,0,7.319-5.09,12.794,0" style="fill:none;stroke:#FFFFFF;stroke-miterlimit:10;"/>
		<path d="M364.122,104.093c-1.167,1.991-3.08,3.431-5.322,3.974c-3.12,0.755-7.214,0.795-8.855-3.38&#10;&#9;&#9;&#9;c-2.807-7.145,1.364-12.374,1.364-12.374s-9.501-7.75-2.398-13.874c7.103-6.124,11.769,1.066,11.769,1.066&#10;&#9;&#9;&#9;s0.856-6.528,7.441-7.038c6.585-0.51,8.797,5.972,8.797,5.972s3.798-6.349,11.453-4.818c7.655,1.531,6.287,9.442,6.287,9.442&#10;&#9;&#9;&#9;s2.521-1.801,6.549-0.946c6.51,1.383,9.577,8.664,8.182,16.063c-0.918,4.868,0.146,9.341,0.981,11.832&#10;&#9;&#9;&#9;c0.56,1.669-0.314,2.983-0.981,2.853c-1.738-0.339-2-17.228-8.539-16.774c-0.31,3.724-2.029,9.815-7.087,8.379&#10;&#9;&#9;&#9;c-1.215-0.345-2.247-1.176-3.044-2.156c-1.305-1.602-1.937-3.647-3.383-5.143c-0.961-0.993-2.072-1.836-3.318-2.44&#10;&#9;&#9;&#9;c-2.94-1.426-6.27-1.276-9.224,0.031C369.567,97.075,366.167,100.604,364.122,104.093z" style="fill:#373C44;"/>
		<g>
			<path d="M389.461,114.346c0.328-0.968,0.996-1.752,1.795-2.384c0.809-0.62,1.816-1.051,2.892-1.163&#10;&#9;&#9;&#9;&#9;c1.07-0.122,2.199,0.095,3.1,0.631c0.478,0.221,0.845,0.606,1.219,0.934c0.341,0.374,0.625,0.797,0.854,1.237&#10;&#9;&#9;&#9;&#9;c-0.994-0.255-1.805-0.582-2.633-0.702c-0.804-0.178-1.57-0.191-2.331-0.111C392.82,112.933,391.293,113.576,389.461,114.346z" style="fill:#373C44;"/>
		</g>
		<g>
			<path d="M372.369,113.602c-1.696-1.323-3.288-1.763-4.99-1.695c-0.855,0-1.74,0.199-2.672,0.357&#10;&#9;&#9;&#9;&#9;c-0.454,0.13-0.941,0.202-1.426,0.317c-0.487,0.116-0.98,0.24-1.533,0.294c0.321-0.433,0.702-0.797,1.088-1.17&#10;&#9;&#9;&#9;&#9;c0.41-0.33,0.854-0.63,1.312-0.911c0.957-0.479,2.014-0.877,3.172-0.885c1.138-0.041,2.348,0.261,3.293,0.942&#10;&#9;&#9;&#9;&#9;C371.549,111.526,372.241,112.512,372.369,113.602z" style="fill:#373C44;"/>
		</g>
		<rect height="15.16" width="20.826" style="fill:none;stroke:#FFFFFF;stroke-miterlimit:10;" y="111.95" x="353.397"/>
		<rect height="15.16" width="20.702" style="fill:none;stroke:#FFFFFF;stroke-miterlimit:10;" y="112.443" x="387.016"/>
	</g>
	<g>
		<path d="M221.785,102.313l-9.273-2.433c0,0-5.587,17.335,2.193,23.279&#10;&#9;&#9;&#9;C222.485,129.104,221.785,102.313,221.785,102.313z" style="fill:#685A56;"/>
		<path d="M191.144,212.639c0,0,9.798-48.076,51.956-48.076s47.658,48.076,47.658,48.076H191.144z" style="fill:#373C44;"/>
		
			<ellipse ry="7.822" rx="7.822" cy="122.168" cx="212.513" style="fill:#CE8282;" transform="matrix(0.9246 -0.3809 0.3809 0.9246 -30.5126 90.1463)"/>
		
			<ellipse ry="7.822" rx="7.822" cy="122.168" cx="270.593" style="fill:#CE8282;" transform="matrix(0.7071 -0.7071 0.7071 0.7071 -7.1308 227.1206)"/>
		<path d="M251.653,150.564l-1.322-17.376l-13.567,1.862l-2.217,25.4&#10;&#9;&#9;&#9;C239.025,159.913,246.317,157.856,251.653,150.564z" style="fill:#D19582;"/>
		<path d="M219.491,103.478c3.39,3.408-0.55,11.762-4.786,11.246c-0.253,4.158-0.067,5.406,0.392,9.549&#10;&#9;&#9;&#9;c0.909,8.207,4.832,15.352,12.279,19.323c7.471,3.984,17.644,5.397,25.593,2.125c6.159-2.535,10.915-7.055,13.352-13.146&#10;&#9;&#9;&#9;c2.776-6.941,2.806-15.817,2.431-23.312c-1.388-27.764-23.996-27.353-23.996-27.353S227.82,82.655,219.491,103.478z" style="fill:#E5B5A3;"/>
		<path d="M234.548,160.45l-0.976,11.178c0,0,0.399,5.586,9.444,6.65c9.045,1.064,10.109-8.38,10.109-8.38&#10;&#9;&#9;&#9;l-1.471-19.335C246.317,157.856,239.025,159.913,234.548,160.45z" style="fill:#E5B5A3;"/>
		<ellipse ry="2.776" rx="1.388" cy="120.309" cx="229.325" style="fill:#373C44;"/>
		<path d="M256.41,120.78c0,1.533-0.622,2.776-1.388,2.776c-0.767,0-1.388-1.243-1.388-2.776&#10;&#9;&#9;&#9;c0-1.533,0.621-2.776,1.388-2.776C255.789,118.003,256.41,119.246,256.41,120.78z" style="fill:#373C44;"/>
		<g>
			<path d="M241.98,122.168c-0.556,0.349-1.1,0.689-1.612,1.035c-0.484,0.33-1.041,0.787-1.059,1.118&#10;&#9;&#9;&#9;&#9;c-0.016,0.139,0.058,0.302,0.293,0.5c0.198,0.193,0.426,0.336,0.676,0.42c0.501,0.158,1.135,0.024,1.703-0.298&#10;&#9;&#9;&#9;&#9;c-0.365,0.53-1.039,0.975-1.819,0.871c-0.384-0.04-0.727-0.234-1.016-0.451c-0.264-0.182-0.63-0.604-0.582-1.112&#10;&#9;&#9;&#9;&#9;c0.069-0.491,0.369-0.801,0.636-1.025c0.285-0.217,0.573-0.401,0.882-0.532C240.685,122.411,241.326,122.245,241.98,122.168z" style="fill:#373C44;"/>
		</g>
		<g>
			<path d="M238.122,128.68c0.619,0.412,1.261,0.744,1.902,1.022c0.647,0.264,1.311,0.45,1.977,0.472&#10;&#9;&#9;&#9;&#9;c0.664,0.043,1.331-0.086,1.953-0.374c0.639-0.26,1.214-0.686,1.825-1.121c-0.198,0.311-0.416,0.621-0.662,0.909&#10;&#9;&#9;&#9;&#9;c-0.279,0.254-0.54,0.548-0.889,0.729c-0.647,0.439-1.466,0.645-2.259,0.606C240.364,130.832,238.96,129.9,238.122,128.68z" style="fill:#373C44;"/>
		</g>
		<circle r="2.922" cy="129.622" cx="227.937" style="fill:#CE8282;"/>
		<circle r="2.922" cy="129.622" cx="255.022" style="fill:#CE8282;"/>
		<path d="M264.818,109.325c-0.754-2.218-1.044-4.567-1.708-6.814c-0.663-2.247-1.789-4.485-3.746-5.774&#10;&#9;&#9;&#9;c-1.967-1.295-4.488-1.438-6.82-1.107c-6.235,0.884-11.608,4.732-17.545,6.829c-6.549,2.313-13.853,2.428-20.472,0.323&#10;&#9;&#9;&#9;c-2.319-0.737-4.585-1.759-6.441-3.333c-3.773-3.2-5.432-8.684-4.066-13.439c0.247-0.86,0.603-1.723,1.256-2.333&#10;&#9;&#9;&#9;s1.666-0.907,2.47-0.515c1.291,0.629,1.36,2.299,1.585,3.531c0.298,1.632,0.779,3.938,1.923,5.181&#10;&#9;&#9;&#9;c0.88-1.458,0.38-3.818,0.559-5.47c0.207-1.907,0.843-3.912,2.381-5.058c0.348-0.26,0.768-0.475,1.2-0.421&#10;&#9;&#9;&#9;c1.122,0.139,1.252,1.688,1.201,2.817c-0.091,2.009,0.23,4.035,0.938,5.918c-0.111-3.466-0.135-7.226,1.928-10.014&#10;&#9;&#9;&#9;c0.474-0.641,1.197-1.258,1.977-1.094c0.886,0.186,1.268,1.255,1.275,2.161c0.007,0.906-0.188,1.861,0.189,2.685&#10;&#9;&#9;&#9;c0.436,0.953,1.55,1.445,2.599,1.457c1.048,0.012,2.057-0.365,3.042-0.725c7.436-2.722,15.146-4.826,23.033-5.535&#10;&#9;&#9;&#9;c3.036-0.273,6.22-0.313,8.985,0.971c2.458,1.142,4.371,3.259,5.661,5.642c1.29,2.383,2.007,5.034,2.548,7.69&#10;&#9;&#9;&#9;c1.03,5.048,1.466,10.217,1.301,15.367c-0.044,1.353,0.385,5.437-1.736,5.336C266.581,113.516,265.284,110.695,264.818,109.325z" style="fill:#685A56;"/>
		<g>
			<polygon points="286.21,195.928 197.187,195.928 198.021,194.283 285.523,194.283" style="fill:#5B66B2;"/>
		</g>
		<g>
			<polygon points="289.488,206.103 192.999,206.103 193.571,204.458 289.063,204.458" style="fill:#5B66B2;"/>
		</g>
		<g>
			<path d="M250.877,114.775c0.479-0.821,1.183-1.501,1.987-2.039c0.806-0.54,1.757-0.898,2.752-1.01&#10;&#9;&#9;&#9;&#9;c0.993-0.102,2.031,0.051,2.907,0.503c0.903,0.397,1.628,1.071,2.213,1.801c-0.445-0.187-0.828-0.436-1.245-0.614&#10;&#9;&#9;&#9;&#9;c-0.424-0.16-0.817-0.368-1.246-0.459c-0.829-0.261-1.686-0.338-2.524-0.238C254.026,112.887,252.425,113.726,250.877,114.775z" style="fill:#373C44;"/>
		</g>
		<g>
			<path d="M233.785,114.089c-1.334-1.549-3.154-2.291-5.005-2.195c-0.932-0.008-1.859,0.255-2.798,0.486&#10;&#9;&#9;&#9;&#9;l-1.397,0.468c-0.462,0.18-0.927,0.364-1.422,0.513c0.379-0.339,0.788-0.643,1.199-0.951c0.428-0.277,0.885-0.518,1.342-0.759&#10;&#9;&#9;&#9;&#9;c0.949-0.405,1.965-0.74,3.046-0.756c1.066-0.028,2.18,0.206,3.092,0.791C232.755,112.253,233.476,113.108,233.785,114.089z" style="fill:#373C44;"/>
		</g>
	</g>
	<g>
		<path d="M45.221,212.639c0,0,9.798-48.076,51.956-48.076s47.658,48.076,47.658,48.076H45.221z" style="fill:#C15252;"/>
		<path d="M65.756,163.197c0,0,37.666-6.907,57.515-0.387c5.328-13.702,16.325-79.959-24.71-80.904&#10;&#9;&#9;&#9;C54.413,80.89,61.731,152.974,65.756,163.197z" style="fill:#685A56;"/>
		
			<ellipse ry="7.822" rx="7.822" cy="122.184" cx="66.589" style="fill:#CE8282;" transform="matrix(0.1653 -0.9862 0.9862 0.1653 -64.9196 167.6648)"/>
		
			<ellipse ry="7.822" rx="7.822" cy="122.184" cx="124.67" style="fill:#CE8282;" transform="matrix(0.1602 -0.9871 0.9871 0.1602 -15.9061 225.6729)"/>
		<path d="M105.73,148.113l-1.322-17.375l-13.567,1.862l-2.217,25.4&#10;&#9;&#9;&#9;C93.102,157.462,100.394,155.405,105.73,148.113z" style="fill:#D19582;"/>
		<path d="M69.681,105.526c-0.731,1.829-0.622,4.34-0.739,6.265c-0.253,4.158-0.227,8.356,0.232,12.499&#10;&#9;&#9;&#9;c0.909,8.207,4.832,15.352,12.279,19.323c7.471,3.984,17.644,5.397,25.593,2.125c6.159-2.535,10.915-7.055,13.352-13.146&#10;&#9;&#9;&#9;c2.776-6.941,2.806-15.817,2.431-23.312c-1.388-27.764-23.996-27.353-23.996-27.353S78.01,84.703,69.681,105.526z" style="fill:#E5B5A3;"/>
		<path d="M88.624,157.999l-0.975,11.178c0,0,0.399,5.586,9.444,6.65c9.045,1.064,10.109-8.38,10.109-8.38&#10;&#9;&#9;&#9;l-1.471-19.335C100.394,155.405,93.102,157.462,88.624,157.999z" style="fill:#E5B5A3;"/>
		<path d="M82.175,120.796c0,1.533-0.622,2.776-1.388,2.776c-0.767,0-1.388-1.243-1.388-2.776&#10;&#9;&#9;&#9;c0-1.533,0.622-2.776,1.388-2.776C81.553,118.02,82.175,119.263,82.175,120.796z" style="fill:#373C44;"/>
		<path d="M112.021,121.912c0,1.533-0.621,2.776-1.388,2.776c-0.767,0-1.388-1.243-1.388-2.776&#10;&#9;&#9;&#9;c0-1.533,0.622-2.776,1.388-2.776C111.399,119.136,112.021,120.379,112.021,121.912z" style="fill:#373C44;"/>
		<g>
			<path d="M96.057,122.184c-0.556,0.349-1.1,0.689-1.612,1.035c-0.484,0.33-1.041,0.787-1.06,1.119&#10;&#9;&#9;&#9;&#9;c-0.016,0.139,0.058,0.302,0.293,0.5c0.198,0.193,0.426,0.336,0.676,0.421c0.501,0.158,1.135,0.024,1.703-0.298&#10;&#9;&#9;&#9;&#9;c-0.366,0.53-1.039,0.975-1.819,0.871c-0.384-0.04-0.727-0.234-1.017-0.451c-0.264-0.182-0.63-0.604-0.582-1.112&#10;&#9;&#9;&#9;&#9;c0.069-0.491,0.369-0.801,0.636-1.025c0.285-0.217,0.573-0.401,0.882-0.532C94.762,122.427,95.403,122.261,96.057,122.184z" style="fill:#373C44;"/>
		</g>
		<g>
			<path d="M92.199,128.696c0.619,0.412,1.261,0.744,1.902,1.023c0.647,0.264,1.311,0.45,1.977,0.472&#10;&#9;&#9;&#9;&#9;c0.664,0.043,1.331-0.086,1.953-0.374c0.639-0.26,1.214-0.686,1.825-1.121c-0.198,0.311-0.416,0.621-0.662,0.909&#10;&#9;&#9;&#9;&#9;c-0.279,0.254-0.539,0.548-0.889,0.729c-0.646,0.439-1.466,0.645-2.259,0.606C94.44,130.848,93.037,129.916,92.199,128.696z" style="fill:#373C44;"/>
		</g>
		<path d="M66.589,109.576c0,0,30.322-2.823,30.836-19.975c2.43,14.481,15.416,16.179,28.773,19.132&#10;&#9;&#9;&#9;c0,0-4.223-29.181-30.513-26.837c-5.573,0.497-10.432,3.746-14.587,7.026C71.701,96.339,67.551,107.346,66.589,109.576z" style="fill:#685A56;"/>
		<path d="M99.303,83.131c0,0,1.772-10.084-0.681-10.63c-2.453-0.545-1.196,9.425-1.196,9.425&#10;&#9;&#9;&#9;s-0.786-6.154-4.428-6.018C89.355,76.045,96.578,82.995,99.303,83.131z" style="fill:#685A56;"/>
		<circle r="2.922" cy="130.581" cx="79.091" style="fill:#CE8282;"/>
		<circle r="2.922" cy="130.581" cx="112.021" style="fill:#CE8282;"/>
		<circle r="10.773" cy="121.912" cx="78.01" style="fill:none;stroke:#FFFFFF;stroke-miterlimit:10;"/>
		<circle r="10.774" cy="121.912" cx="112.685" style="fill:none;stroke:#FFFFFF;stroke-miterlimit:10;"/>
		<path d="M88.624,121.355c0,0,7.834-6.244,13.287,0.557" style="fill:none;stroke:#FFFFFF;stroke-miterlimit:10;"/>
		<g>
			<path d="M107.092,114.792c0.479-0.822,1.183-1.501,1.987-2.039c0.806-0.54,1.756-0.898,2.752-1.01&#10;&#9;&#9;&#9;&#9;c0.993-0.102,2.031,0.051,2.907,0.503c0.903,0.397,1.628,1.071,2.213,1.802c-0.445-0.187-0.828-0.436-1.245-0.614&#10;&#9;&#9;&#9;&#9;c-0.424-0.16-0.817-0.368-1.246-0.459c-0.829-0.261-1.686-0.338-2.524-0.238C110.24,112.903,108.64,113.742,107.092,114.792z" style="fill:#685A56;"/>
		</g>
		<g>
			<path d="M83.827,114.723c-1.537-1.251-3.308-1.912-5.122-1.957c-0.91-0.013-1.822,0.13-2.738,0.347&#10;&#9;&#9;&#9;&#9;c-0.457,0.111-0.904,0.275-1.372,0.399c-0.451,0.167-0.904,0.343-1.389,0.483c0.37-0.329,0.769-0.627,1.175-0.925&#10;&#9;&#9;&#9;&#9;c0.437-0.237,0.868-0.51,1.338-0.697c0.937-0.392,1.962-0.605,3.006-0.606c1.041,0.041,2.085,0.303,2.981,0.824&#10;&#9;&#9;&#9;&#9;C82.603,113.097,83.372,113.829,83.827,114.723z" style="fill:#685A56;"/>
		</g>
	</g>
	<g>
		<path d="M191.541,411.606c0,0,9.798-48.076,51.957-48.076c42.158,0,47.658,48.076,47.658,48.076H191.541z" style="fill:#E28269;"/>
		<path d="M233.378,364.525c0,0-9.011,9.285-1.502,15.974c7.106,6.33,11.537-3.254,11.537-3.254&#10;&#9;&#9;&#9;s-0.021,5.963,7.028,5.49c7.049-0.473,10.719-9.028,7.901-16.913C248.557,360.647,233.378,364.525,233.378,364.525z" style="fill:#FFFFFF;"/>
		<circle r="7.822" cy="321.135" cx="212.909" style="fill:#CE8282;"/>
		<circle r="7.822" cy="321.135" cx="270.99" style="fill:#CE8282;"/>
		<path d="M252.05,349.531l-1.322-17.376l-13.567,1.862l-2.217,25.4&#10;&#9;&#9;&#9;C239.422,358.88,246.714,356.823,252.05,349.531z" style="fill:#D19582;"/>
		<path d="M215.102,313.691c-0.253,4.158-0.067,5.406,0.392,9.549c0.909,8.207,4.832,15.352,12.279,19.323&#10;&#9;&#9;&#9;c7.471,3.984,17.644,5.397,25.593,2.125c6.159-2.535,10.915-7.055,13.352-13.146c2.776-6.941,2.806-15.817,2.431-23.312&#10;&#9;&#9;&#9;c-1.388-27.764-23.996-27.354-23.996-27.354S214.989,278.553,215.102,313.691z" style="fill:#E5B5A3;"/>
		<path d="M234.945,359.417l-0.976,11.178c0,0,0.399,5.586,9.444,6.651c9.045,1.064,10.109-8.38,10.109-8.38&#10;&#9;&#9;&#9;l-1.471-19.335C246.714,356.823,239.422,358.88,234.945,359.417z" style="fill:#E5B5A3;"/>
		<path d="M231.11,319.276c0,1.533-0.622,2.776-1.388,2.776c-0.767,0-1.388-1.243-1.388-2.776&#10;&#9;&#9;&#9;c0-1.533,0.622-2.776,1.388-2.776C230.488,316.5,231.11,317.743,231.11,319.276z" style="fill:#373C44;"/>
		<ellipse ry="2.776" rx="1.388" cy="319.747" cx="255.419" style="fill:#373C44;"/>
		<g>
			<path d="M242.377,321.135c-0.556,0.349-1.1,0.689-1.612,1.035c-0.484,0.33-1.041,0.787-1.059,1.118&#10;&#9;&#9;&#9;&#9;c-0.016,0.139,0.058,0.302,0.293,0.5c0.198,0.193,0.426,0.336,0.676,0.421c0.501,0.158,1.135,0.024,1.703-0.298&#10;&#9;&#9;&#9;&#9;c-0.366,0.53-1.039,0.975-1.819,0.871c-0.384-0.04-0.727-0.234-1.017-0.451c-0.264-0.182-0.63-0.604-0.582-1.112&#10;&#9;&#9;&#9;&#9;c0.069-0.491,0.369-0.801,0.636-1.025c0.285-0.217,0.573-0.401,0.882-0.532C241.082,321.378,241.723,321.212,242.377,321.135z" style="fill:#373C44;"/>
		</g>
		<g>
			<path d="M238.519,327.647c0.619,0.412,1.261,0.744,1.902,1.022c0.647,0.264,1.311,0.45,1.977,0.472&#10;&#9;&#9;&#9;&#9;c0.664,0.043,1.331-0.086,1.953-0.374c0.639-0.26,1.214-0.686,1.825-1.121c-0.198,0.311-0.416,0.621-0.662,0.909&#10;&#9;&#9;&#9;&#9;c-0.279,0.254-0.539,0.548-0.889,0.729c-0.646,0.439-1.466,0.645-2.259,0.606C240.761,329.799,239.357,328.867,238.519,327.647z" style="fill:#373C44;"/>
		</g>
		<circle r="2.922" cy="327.658" cx="226.807" style="fill:#CE8282;"/>
		<circle r="2.922" cy="328.59" cx="256.807" style="fill:#CE8282;"/>
		<path d="M213.839,322.832c0.368-0.523-9.424-43.422,29.441-43.541&#10;&#9;&#9;&#9;c36.931-0.112,26.751,38.315,26.751,38.315s-15.9-9.82-17.98-25.423c0.109,0.816-1.28,2.616-1.706,3.29&#10;&#9;&#9;&#9;c-0.683,1.08-1.459,2.071-2.289,3.038c-3.388,3.945-7.49,7.48-12.026,10.159c-2.373,1.401-4.891,2.628-7.499,3.527&#10;&#9;&#9;&#9;c-2.796,0.964-5.711,1.533-8.386,2.84C216.952,316.596,214.945,319.522,213.839,322.832z" style="fill:#373C44;"/>
		<path d="M251.492,283.832c0,0-5.77-13.718,6.968-17.42c12.738-3.702,20.415,9.254,5.199,21.775&#10;&#9;&#9;&#9;C259.222,283.505,251.492,283.832,251.492,283.832z" style="fill:#373C44;"/>
		<circle r="1.549" cy="385.588" cx="243.244" style="fill:#FFFFFF;"/>
		<circle r="1.549" cy="394.534" cx="243.244" style="fill:#FFFFFF;"/>
	</g>
	<g>
		<path d="M355.804,293.574c0,0-6.155,20.905-2.4,22.989c3.755,2.084,4.399,0,4.399,0l5.123-21.244&#10;&#9;&#9;&#9;L355.804,293.574z" style="fill:#EFCA6F;"/>
		<path d="M412.432,314.725c0,0,2.998-25.229-3.174-25.07C403.085,289.814,400.885,315.981,412.432,314.725z" style="fill:#EFCA6F;"/>
		<path d="M331.48,411.606c0,0,9.798-48.076,51.957-48.076s47.658,48.076,47.658,48.076H331.48z" style="fill:#373C44;"/>
		<circle r="7.822" cy="321.135" cx="352.849" style="fill:#CE8282;"/>
		<circle r="7.822" cy="321.135" cx="410.93" style="fill:#CE8282;"/>
		<path d="M391.99,349.531l-1.322-17.376l-13.567,1.862l-2.217,25.4&#10;&#9;&#9;&#9;C379.361,358.88,386.653,356.823,391.99,349.531z" style="fill:#EAAD9B;"/>
		<path d="M355.042,313.691c-0.253,4.158-0.067,5.406,0.392,9.549c0.909,8.207,4.832,15.352,12.28,19.323&#10;&#9;&#9;&#9;c7.471,3.984,17.643,5.397,25.593,2.125c6.159-2.535,10.915-7.055,13.352-13.146c2.776-6.941,2.806-15.817,2.431-23.312&#10;&#9;&#9;&#9;c-1.388-27.764-23.996-27.354-23.996-27.354S354.928,278.553,355.042,313.691z" style="fill:#F2C3B3;"/>
		<path d="M374.884,359.417l-0.975,11.178c0,0,0.399,5.586,9.444,6.651c9.045,1.064,10.109-8.38,10.109-8.38&#10;&#9;&#9;&#9;l-1.471-19.335C386.653,356.823,379.361,358.88,374.884,359.417z" style="fill:#F2C3B3;"/>
		<ellipse ry="2.776" rx="1.388" cy="319.276" cx="369.661" style="fill:#373C44;"/>
		<ellipse ry="2.776" rx="1.388" cy="319.747" cx="395.358" style="fill:#373C44;"/>
		<g>
			<path d="M382.316,321.135c-0.556,0.349-1.1,0.689-1.612,1.035c-0.484,0.33-1.041,0.787-1.06,1.118&#10;&#9;&#9;&#9;&#9;c-0.016,0.139,0.058,0.302,0.293,0.5c0.198,0.193,0.426,0.336,0.676,0.421c0.501,0.158,1.135,0.024,1.703-0.298&#10;&#9;&#9;&#9;&#9;c-0.366,0.53-1.039,0.975-1.819,0.871c-0.384-0.04-0.727-0.234-1.017-0.451c-0.264-0.182-0.63-0.604-0.582-1.112&#10;&#9;&#9;&#9;&#9;c0.069-0.491,0.369-0.801,0.636-1.025c0.285-0.217,0.573-0.401,0.882-0.532C381.021,321.378,381.662,321.212,382.316,321.135z" style="fill:#373C44;"/>
		</g>
		<g>
			<path d="M378.458,327.647c0.619,0.412,1.261,0.744,1.902,1.022c0.647,0.264,1.311,0.45,1.977,0.472&#10;&#9;&#9;&#9;&#9;c0.664,0.043,1.331-0.086,1.953-0.374c0.639-0.26,1.214-0.686,1.825-1.121c-0.198,0.311-0.416,0.621-0.662,0.909&#10;&#9;&#9;&#9;&#9;c-0.279,0.254-0.54,0.548-0.889,0.729c-0.646,0.439-1.466,0.645-2.259,0.606C380.7,329.799,379.296,328.867,378.458,327.647z" style="fill:#373C44;"/>
		</g>
		<circle r="2.922" cy="329.532" cx="365.351" style="fill:#CE8282;"/>
		<circle r="2.922" cy="329.532" cx="398.28" style="fill:#CE8282;"/>
		<circle r="10.774" cy="317.9" cx="364.756" style="fill:none;stroke:#FFFFFF;stroke-miterlimit:10;"/>
		<circle r="10.773" cy="317.9" cx="399.43" style="fill:none;stroke:#FFFFFF;stroke-miterlimit:10;"/>
		<path d="M375.37,317.342c0,0,7.834-6.244,13.287,0.557" style="fill:none;stroke:#FFFFFF;stroke-miterlimit:10;"/>
		<path d="M407.309,297.933c0.243-2.122,0.339-4.271,0.361-6.405c0.034-3.18,0.047-6.595-0.875-9.666&#10;&#9;&#9;&#9;c-1.409-4.692-5.27-6.386-9.841-6.897c-4.354-0.486-8.794,0.176-12.997,1.316c-2.881,0.781-5.692,1.811-8.427,3.002&#10;&#9;&#9;&#9;c-12.242,5.331-22.366,5.062-23.384,1.563c-1.019,5.309,1.731,7.705,4.991,8.112c-5.206-0.204-6.926-3.361-6.926-3.361&#10;&#9;&#9;&#9;s-0.917,10.6,8.352,10.24c9.268-0.361,32.286-8.61,37.684-4.842C401.643,294.764,401.587,300.473,407.309,297.933z" style="fill:#EFCA6F;"/>
		<path d="M407.264,290.783c-0.205-0.096,1.66-7.862,3.665-7.862c2.005,0-1.833,5.897-1.833,5.897&#10;&#9;&#9;&#9;s2.855-3.629,4.367-2.721C414.975,287.003,409.684,291.917,407.264,290.783z" style="fill:#EFCA6F;"/>
		<g>
			<path d="M393.461,313.676c0.637-1.377,2.185-2.408,3.855-2.349c0.818,0.048,1.615,0.295,2.271,0.729&#10;&#9;&#9;&#9;&#9;c0.338,0.197,0.616,0.478,0.908,0.721c0.254,0.291,0.499,0.583,0.708,0.898c-0.359-0.151-0.677-0.332-0.996-0.501&#10;&#9;&#9;&#9;&#9;c-0.338-0.134-0.648-0.308-0.974-0.424c-0.647-0.25-1.297-0.398-1.945-0.426c-0.65-0.042-1.297,0.105-1.938,0.333&#10;&#9;&#9;&#9;&#9;C394.711,312.902,394.09,313.25,393.461,313.676z" style="fill:#EFCA6F;"/>
		</g>
		<g>
			<path d="M365.79,313.676c0.637-1.377,2.185-2.408,3.855-2.349c0.818,0.048,1.615,0.295,2.271,0.729&#10;&#9;&#9;&#9;&#9;c0.338,0.197,0.616,0.478,0.908,0.721c0.254,0.291,0.499,0.583,0.708,0.898c-0.359-0.151-0.677-0.332-0.996-0.501&#10;&#9;&#9;&#9;&#9;c-0.338-0.134-0.648-0.308-0.974-0.424c-0.647-0.25-1.297-0.398-1.945-0.426c-0.651-0.042-1.297,0.105-1.938,0.333&#10;&#9;&#9;&#9;&#9;C367.04,312.902,366.419,313.25,365.79,313.676z" style="fill:#EFCA6F;"/>
		</g>
	</g>
	<g>
		<path d="M124.034,301.877l4.039,39.476c0,0,8.247-2.724,13.151,4.433c4.903,7.157-2.004,9.609-2.006,9.609&#10;&#9;&#9;&#9;c0.781-0.277,3.355,2.791,3.729,3.253c1.993,2.457,4.353,6.927,1.619,9.699c-1.47,1.49-3.663,1.509-5.525,0.85&#10;&#9;&#9;&#9;c-1.412-0.5-4.281-2.083-4.581-3.772c1.86,10.477-7.473,13.151-9.494,12.928c-2.021-0.223-24.469-7.802-24.469-7.802l-7.866,6.776&#10;&#9;&#9;&#9;l-17.164-3.209c0,0-14.489,6.241-17.387-4.681c-1.545-5.825,0.362-11.839,6.028-14.4c-2.615,0.532-5.421,0.456-7.846-0.658&#10;&#9;&#9;&#9;c-2.425-1.114-4.402-3.37-4.769-6.013c-0.892-6.44,6.468-7.854,11.268-7.46l9.487-39.683L124.034,301.877z" style="fill:#E28269;"/>
		<path d="M47.19,411.606c0,0,9.798-48.076,51.957-48.076c42.158,0,47.658,48.076,47.658,48.076H47.19z" style="fill:#EFCA6F;"/>
		<circle r="7.822" cy="321.135" cx="68.558" style="fill:#CE8282;"/>
		<circle r="7.822" cy="321.135" cx="126.639" style="fill:#CE8282;"/>
		<path d="M107.699,349.531l-1.322-17.376l-13.567,1.862l-2.217,25.4&#10;&#9;&#9;&#9;C95.071,358.88,102.363,356.823,107.699,349.531z" style="fill:#D19582;"/>
		<path d="M70.751,313.691c-0.253,4.158-0.067,5.406,0.392,9.549c0.909,8.207,4.832,15.352,12.279,19.323&#10;&#9;&#9;&#9;c7.471,3.984,17.644,5.397,25.593,2.125c6.159-2.535,10.915-7.055,13.352-13.146c2.776-6.941,2.806-15.817,2.431-23.312&#10;&#9;&#9;&#9;c-1.388-27.764-23.996-27.354-23.996-27.354S70.638,278.553,70.751,313.691z" style="fill:#E5B5A3;"/>
		<path d="M90.593,359.417l-0.976,11.178c0,0,0.399,5.586,9.444,6.651c9.045,1.064,10.109-8.38,10.109-8.38&#10;&#9;&#9;&#9;l-1.471-19.335C102.363,356.823,95.071,358.88,90.593,359.417z" style="fill:#E5B5A3;"/>
		<ellipse ry="2.776" rx="1.388" cy="319.276" cx="85.37" style="fill:#373C44;"/>
		<ellipse ry="2.776" rx="1.388" cy="319.747" cx="111.068" style="fill:#373C44;"/>
		<g>
			<path d="M98.026,321.135c-0.556,0.349-1.1,0.689-1.612,1.035c-0.484,0.33-1.041,0.787-1.059,1.118&#10;&#9;&#9;&#9;&#9;c-0.016,0.139,0.058,0.302,0.293,0.5c0.198,0.193,0.426,0.336,0.676,0.421c0.501,0.158,1.135,0.024,1.703-0.298&#10;&#9;&#9;&#9;&#9;c-0.366,0.53-1.039,0.975-1.819,0.871c-0.384-0.04-0.727-0.234-1.016-0.451c-0.264-0.182-0.63-0.604-0.582-1.112&#10;&#9;&#9;&#9;&#9;c0.069-0.491,0.369-0.801,0.636-1.025c0.285-0.217,0.573-0.401,0.882-0.532C96.731,321.378,97.372,321.212,98.026,321.135z" style="fill:#373C44;"/>
		</g>
		<circle r="2.922" cy="328.265" cx="83.277" style="fill:#CE8282;"/>
		<circle r="2.922" cy="328.957" cx="112.456" style="fill:#CE8282;"/>
		<path d="M95.139,328.787c0,0,0.865-1.461,1.899-1.001c1.035,0.46,0.906,0.805,0.906,0.805&#10;&#9;&#9;&#9;s0.712-0.811,1.541-0.894c0.829-0.083,1.859,0.917,1.859,0.917S98.585,334.156,95.139,328.787z" style="opacity:0.64;fill:#C66767;"/>
		<g>
			<path d="M94.167,328.015c0.619,0.412,1.261,0.744,1.902,1.022c0.647,0.264,1.311,0.45,1.977,0.472&#10;&#9;&#9;&#9;&#9;c0.664,0.043,1.331-0.086,1.953-0.374c0.639-0.26,1.214-0.686,1.825-1.121c-0.198,0.311-0.416,0.621-0.662,0.909&#10;&#9;&#9;&#9;&#9;c-0.279,0.254-0.539,0.548-0.889,0.729c-0.646,0.439-1.466,0.645-2.259,0.606C96.409,330.166,95.006,329.235,94.167,328.015z" style="fill:#373C44;"/>
		</g>
		<path d="M99.146,281.563c0,0-1.956-6.228,0-6.529c1.956-0.301,0.952,5.808,0.952,5.808&#10;&#9;&#9;&#9;s0.904-4.1,2.813-2.995C104.819,278.951,100.615,282.19,99.146,281.563z" style="fill:#E28269;"/>
		<path d="M111.068,317.501c0,0,2.545-0.09,3.305-1.61c0,2.349-2.763,3.385-2.763,3.385L111.068,317.501z" style="fill:#373C44;"/>
		<path d="M84.929,316.97c0,0-2.546-0.09-3.306-1.61c0,2.349,2.763,3.385,2.763,3.385L84.929,316.97z" style="fill:#373C44;"/>
		<path d="M123.456,298.187c-0.656-1.779-1.424-3.516-2.312-5.165c-1.81-3.36-4.183-6.071-7.396-8.165&#10;&#9;&#9;&#9;c-2.733-1.781-5.831-2.994-9.04-3.569c-5.311-0.951-10.794-0.202-15.88,1.481c-4.205,1.391-9.462,5.039-11.929,8.365&#10;&#9;&#9;&#9;c-1.735,2.339-5.201,6.986-6.012,18.424c0,0,12.686,1.396,25.609-11.509c-0.51,6.618-3.719,9.178-3.719,9.178&#10;&#9;&#9;&#9;s10.971-0.31,13.518-9.906c8.368,5.561,4.774,11.052,4.774,11.052s5.537-1.047,9.233-4.669c-0.203,0.199,0.043,1.604,0.067,1.9&#10;&#9;&#9;&#9;c0.053,0.654,0.138,1.307,0.269,1.951c0.247,1.212,0.654,2.412,1.334,3.454c0.517,0.793,1.674,2.23,2.701,2.357&#10;&#9;&#9;&#9;c1.136,0.141,1.213-3.151,1.2-3.983C125.814,305.562,124.771,301.753,123.456,298.187z" style="fill:#E28269;"/>
		<path d="M63.164,379.859c0,0,5.497,31.747,5.394,31.747c-0.103,0,58.99,0,58.99,0l7.475-29.962&#10;&#9;&#9;&#9;c0,0-4.152-5.322-6.567-7.346c-0.529,4.07-9.401,29.949-9.401,29.949l-42.675,0.669l-5.743-32.03&#10;&#9;&#9;&#9;C70.638,372.887,65.413,376.775,63.164,379.859z" style="fill:#C66767;"/>
	</g>
	<g>
		<path d="M492.054,115.255c0,0-5.043-15.673,7.724-21.866c12.767-6.193,46.05-0.321,46.05-0.321&#10;&#9;&#9;&#9;s3.89,22.056-0.227,24.935C541.483,120.883,492.054,115.255,492.054,115.255z" style="fill:#373C44;"/>
		
			<ellipse ry="7.822" rx="7.822" cy="122.168" cx="492.054" style="fill:#CE8282;" transform="matrix(0.2305 -0.9731 0.9731 0.2305 259.7452 572.8061)"/>
		
			<ellipse ry="7.822" rx="7.822" cy="122.168" cx="550.135" style="fill:#CE8282;" transform="matrix(0.9246 -0.3809 0.3809 0.9246 -5.0662 218.7348)"/>
		<path d="M531.195,150.564l-1.322-17.376l-13.567,1.862l-2.217,25.4&#10;&#9;&#9;&#9;C518.566,159.913,525.858,157.856,531.195,150.564z" style="fill:#D19582;"/>
		<path d="M541.968,130.493c-0.755,1.644-1.147,3.446-2.014,5.034c-2.342,4.286-7.849,6.069-12.27,3.984&#10;&#9;&#9;&#9;c-1.298-0.612-2.484-1.53-3.895-1.79c-1.3-0.239-2.701,0.144-3.699,1.011c-0.838,0.729-1.406,1.774-2.374,2.319&#10;&#9;&#9;&#9;c-0.682,0.384-1.49,0.473-2.273,0.481c-4.109,0.043-7.568-1.86-9.923-5.155c-2.134-2.987-3.474-6.535-6.074-9.185&#10;&#9;&#9;&#9;c-1.41-1.438-3.129-2.516-4.876-3.531c0.022,0.199,0.045,0.4,0.068,0.613c0.909,8.207,4.832,15.352,12.279,19.323&#10;&#9;&#9;&#9;c7.471,3.984,17.644,5.397,25.593,2.125c6.159-2.535,10.915-7.055,13.352-13.146c0.915-2.286,1.527-4.785,1.929-7.373&#10;&#9;&#9;&#9;C545.264,125.935,543.093,128.042,541.968,130.493z" style="fill:#373C44;"/>
		<path d="M548.294,109.264c-1.388-27.764-23.996-27.353-23.996-27.353s-30.164-2.325-30.051,32.814&#10;&#9;&#9;&#9;c-0.24,3.944-0.084,5.274,0.324,8.936c1.747,1.014,3.465,2.093,4.876,3.531c3.721,3.793,5.043,9.773,9.531,12.618&#10;&#9;&#9;&#9;c1.811,1.147,3.977,1.647,6.119,1.71c1.047,0.031,2.163-0.061,3.005-0.683c0.642-0.474,1.046-1.199,1.597-1.776&#10;&#9;&#9;&#9;c1.077-1.127,2.758-1.639,4.28-1.304c1.327,0.292,2.445,1.152,3.67,1.739c2.143,1.027,4.682,1.198,6.944,0.468&#10;&#9;&#9;&#9;c2.262-0.729,4.222-2.352,5.361-4.437c0.868-1.587,1.259-3.39,2.014-5.034c1.125-2.451,3.296-4.558,5.823-5.29&#10;&#9;&#9;&#9;C548.61,119.935,548.545,114.29,548.294,109.264z" style="fill:#E5B5A3;"/>
		<path d="M470.685,212.639c0,0,9.798-48.076,51.957-48.076s47.658,48.076,47.658,48.076H470.685z" style="fill:#BFD6D8;"/>
		<path d="M514.089,160.45l-0.976,11.178c0,0,0.484-0.245,9.528,0.82c9.045,1.064,9.688-6.958,9.688-6.958&#10;&#9;&#9;&#9;l-1.136-14.926C525.858,157.856,518.566,159.913,514.089,160.45z" style="fill:#E5B5A3;"/>
		<path d="M510.254,120.309c0,1.533-0.621,2.776-1.388,2.776c-0.767,0-1.388-1.243-1.388-2.776&#10;&#9;&#9;&#9;c0-1.533,0.622-2.776,1.388-2.776C509.633,117.533,510.254,118.776,510.254,120.309z" style="fill:#373C44;"/>
		<ellipse ry="2.776" rx="1.388" cy="120.78" cx="534.563" style="fill:#373C44;"/>
		<g>
			<path d="M524.172,122.168c-0.556,0.349-1.1,0.689-1.612,1.035c-0.484,0.33-1.041,0.787-1.059,1.118&#10;&#9;&#9;&#9;&#9;c-0.016,0.139,0.058,0.302,0.293,0.5c0.198,0.193,0.426,0.336,0.676,0.42c0.501,0.158,1.135,0.024,1.703-0.298&#10;&#9;&#9;&#9;&#9;c-0.365,0.53-1.039,0.975-1.819,0.871c-0.384-0.04-0.727-0.234-1.016-0.451c-0.264-0.182-0.63-0.604-0.582-1.112&#10;&#9;&#9;&#9;&#9;c0.069-0.491,0.369-0.801,0.636-1.025c0.285-0.217,0.573-0.401,0.882-0.532C522.877,122.411,523.518,122.245,524.172,122.168z" style="fill:#373C44;"/>
		</g>
		<g>
			<path d="M518.814,131.33c0.619,0.412,1.261,0.744,1.902,1.023c0.647,0.264,1.311,0.45,1.977,0.472&#10;&#9;&#9;&#9;&#9;c0.664,0.043,1.331-0.086,1.953-0.374c0.639-0.26,1.214-0.686,1.825-1.121c-0.198,0.311-0.416,0.621-0.662,0.909&#10;&#9;&#9;&#9;&#9;c-0.279,0.254-0.539,0.548-0.889,0.729c-0.647,0.439-1.466,0.645-2.259,0.606C521.056,133.482,519.652,132.55,518.814,131.33z" style="fill:#373C44;"/>
		</g>
		<circle r="2.922" cy="128.018" cx="507.478" style="fill:#CE8282;"/>
		<circle r="2.922" cy="128.68" cx="535.588" style="fill:#CE8282;"/>
		<g>
			<path d="M530.449,115.255c0.328-0.968,0.996-1.752,1.795-2.384c0.809-0.619,1.816-1.051,2.892-1.162&#10;&#9;&#9;&#9;&#9;c1.07-0.122,2.199,0.094,3.1,0.631c0.478,0.221,0.845,0.605,1.219,0.934c0.341,0.374,0.625,0.797,0.853,1.237&#10;&#9;&#9;&#9;&#9;c-0.994-0.255-1.805-0.582-2.633-0.702c-0.805-0.178-1.57-0.191-2.331-0.111C533.807,113.841,532.281,114.484,530.449,115.255z" style="fill:#373C44;"/>
		</g>
		<g>
			<path d="M513.356,114.511c-1.696-1.323-3.288-1.763-4.99-1.695c-0.855,0-1.74,0.2-2.672,0.357&#10;&#9;&#9;&#9;&#9;c-0.454,0.13-0.941,0.202-1.426,0.317c-0.487,0.116-0.98,0.24-1.533,0.294c0.321-0.433,0.702-0.797,1.088-1.17&#10;&#9;&#9;&#9;&#9;c0.41-0.33,0.855-0.629,1.312-0.911c0.957-0.479,2.014-0.877,3.172-0.885c1.138-0.041,2.348,0.261,3.293,0.942&#10;&#9;&#9;&#9;&#9;C512.537,112.434,513.228,113.421,513.356,114.511z" style="fill:#373C44;"/>
		</g>
		<path d="M530.336,128.14c-2.416,0.93-4.083-4.831-7.034-2.579c0,0-0.106,0.086-0.5,0.017v-0.075&#10;&#9;&#9;&#9;c-0.059,0.017-0.109,0.029-0.16,0.041c-0.051-0.012-0.101-0.024-0.161-0.041v0.075c-0.393,0.07-0.5-0.017-0.5-0.017&#10;&#9;&#9;&#9;c-2.951-2.252-4.619,3.509-7.034,2.579c2.172,1.708,3.615,2.2,7.695,0.056C526.721,130.341,528.164,129.848,530.336,128.14z" style="fill:#373C44;"/>
		<path d="M547.439,113.956c-3.755-1.011-6.628-20.537-12.876-20.859&#10;&#9;&#9;&#9;c-6.248-0.322-26.632,19.457-37.897,10.48c-11.265-8.978-9.012-20.242-6.866-21.101c2.146-0.858,3.004,4.613,3.004,4.613&#10;&#9;&#9;&#9;s-0.652-6.008,1.766-6.437c2.418-0.429,2.74,5.257,2.74,5.257s-1.413-6.973,2.565-7.081c3.979-0.107,1.833,6.759,1.833,6.759&#10;&#9;&#9;&#9;s26.323-16.321,34.243-3.708C552.577,85.341,551.194,114.967,547.439,113.956z" style="fill:#373C44;"/>
		<path d="M535.588,82.8c0,0,1.021-5.547,2.391-5.704c1.37-0.157-1.196,4.982-1.196,4.982&#10;&#9;&#9;&#9;s2.338-3.006,3.023-2.132C540.492,80.821,536.774,83.562,535.588,82.8z" style="fill:#373C44;"/>
		<path d="M513.739,164.463l8.903,7.984l-5.012,9.784c0,0-8.619-6.807-8.198-15.929&#10;&#9;&#9;&#9;c4.848-8.042,4.612-5.337,4.612-5.337L513.739,164.463z" style="fill:#A9B7B7;"/>
		<path d="M532.102,164.463l-9.46,7.984l5.569,9.784c0,0,8.619-6.807,8.198-15.929&#10;&#9;&#9;&#9;c-4.848-8.042-4.612-5.337-4.612-5.337L532.102,164.463z" style="fill:#A9B7B7;"/>
		<path d="M523.762,182.232c0,0.574-0.466,1.04-1.04,1.04c-0.574,0-1.04-0.466-1.04-1.04&#10;&#9;&#9;&#9;c0-0.575,0.466-1.04,1.04-1.04C523.296,181.191,523.762,181.657,523.762,182.232z" style="fill:#FFFFFF;"/>
		<path d="M523.762,199.32c0,0.574-0.466,1.04-1.04,1.04c-0.574,0-1.04-0.466-1.04-1.04&#10;&#9;&#9;&#9;c0-0.575,0.466-1.04,1.04-1.04C523.296,198.28,523.762,198.746,523.762,199.32z" style="fill:#FFFFFF;"/>
	</g>
	<g>
		<path d="M550.64,334.703c2.544,4.338,6.086,7.985,9.309,11.846c3.222,3.861,6.217,8.117,7.333,13.021&#10;&#9;&#9;&#9;c1.883,8.276-2.524,17.561-10.127,21.335c-3.589,1.782-7.632,2.388-11.605,2.91c-14.687,1.931-29.756,3.021-44.199-0.272&#10;&#9;&#9;&#9;c-3.88-0.885-7.768-2.121-10.974-4.478c-3.206-2.357-5.663-6.001-5.777-9.979c-0.173-6.066,4.782-10.884,7.363-16.376&#10;&#9;&#9;&#9;c2.713-5.774,2.784-12.4,2.594-18.776c-0.097-3.249-0.229-6.614,1.004-9.622c1.617-3.943,5.319-6.624,9.084-8.62&#10;&#9;&#9;&#9;c8.255-4.378,17.703-6.479,27.036-6.013c5.386,0.269,14.14,2.74,15.672,8.884c0.505,2.025-0.025,4.278,0.113,6.344&#10;&#9;&#9;&#9;C547.699,328.383,548.885,331.712,550.64,334.703z" style="fill:#685A56;"/>
		<path d="M471.512,411.606c0,0,9.798-48.076,51.956-48.076s47.658,48.076,47.658,48.076H471.512z" style="fill:#676D82;"/>
		<circle r="7.822" cy="321.135" cx="492.88" style="fill:#CE8282;"/>
		<circle r="7.822" cy="321.135" cx="550.961" style="fill:#CE8282;"/>
		<path d="M532.021,349.531l-1.322-17.376l-13.567,1.862l-2.217,25.4&#10;&#9;&#9;&#9;C519.393,358.88,526.685,356.823,532.021,349.531z" style="fill:#D19582;"/>
		<path d="M495.073,313.691c-0.253,4.158-0.067,5.406,0.392,9.549c0.909,8.207,4.832,15.352,12.28,19.323&#10;&#9;&#9;&#9;c7.471,3.984,17.643,5.397,25.593,2.125c6.159-2.535,10.915-7.055,13.352-13.146c2.776-6.941,2.806-15.817,2.431-23.312&#10;&#9;&#9;&#9;c-1.388-27.764-23.996-27.354-23.996-27.354S494.96,278.553,495.073,313.691z" style="fill:#E5B5A3;"/>
		<path d="M514.915,359.417l-0.976,11.178c0,0,0.399,5.586,9.444,6.651c9.045,1.064,10.109-8.38,10.109-8.38&#10;&#9;&#9;&#9;l-1.471-19.335C526.685,356.823,519.393,358.88,514.915,359.417z" style="fill:#E5B5A3;"/>
		<ellipse ry="2.776" rx="1.388" cy="319.276" cx="509.692" style="fill:#373C44;"/>
		<ellipse ry="2.776" rx="1.388" cy="319.747" cx="535.39" style="fill:#373C44;"/>
		<g>
			<path d="M522.348,321.135c-0.556,0.349-1.1,0.689-1.612,1.035c-0.484,0.33-1.041,0.787-1.059,1.119&#10;&#9;&#9;&#9;&#9;c-0.016,0.139,0.058,0.302,0.293,0.5c0.198,0.193,0.426,0.336,0.676,0.421c0.501,0.158,1.135,0.024,1.703-0.298&#10;&#9;&#9;&#9;&#9;c-0.366,0.53-1.039,0.975-1.819,0.871c-0.384-0.04-0.727-0.234-1.016-0.451c-0.264-0.182-0.63-0.604-0.582-1.112&#10;&#9;&#9;&#9;&#9;c0.069-0.491,0.369-0.801,0.636-1.025c0.285-0.217,0.573-0.401,0.882-0.532C521.053,321.378,521.694,321.212,522.348,321.135z" style="fill:#373C44;"/>
		</g>
		<g>
			<path d="M518.52,328.59c0.619,0.412,1.261,0.744,1.902,1.022c0.647,0.264,1.311,0.45,1.977,0.472&#10;&#9;&#9;&#9;&#9;c0.664,0.043,1.331-0.086,1.953-0.374c0.639-0.26,1.214-0.686,1.825-1.121c-0.198,0.311-0.416,0.621-0.662,0.909&#10;&#9;&#9;&#9;&#9;c-0.279,0.254-0.539,0.548-0.889,0.729c-0.647,0.439-1.466,0.645-2.259,0.606C520.761,330.741,519.358,329.81,518.52,328.59z" style="fill:#373C44;"/>
		</g>
		<circle r="2.922" cy="328.59" cx="506.799" style="fill:#CE8282;"/>
		<circle r="2.922" cy="329.02" cx="536.778" style="fill:#CE8282;"/>
		<g>
			<path d="M532.312,313.396c0.637-1.377,2.185-2.408,3.855-2.349c0.818,0.048,1.615,0.295,2.271,0.729&#10;&#9;&#9;&#9;&#9;c0.338,0.197,0.616,0.478,0.908,0.721c0.254,0.291,0.499,0.583,0.708,0.898c-0.359-0.151-0.677-0.332-0.996-0.501&#10;&#9;&#9;&#9;&#9;c-0.338-0.134-0.648-0.308-0.974-0.424c-0.647-0.25-1.297-0.398-1.945-0.426c-0.651-0.042-1.297,0.105-1.938,0.333&#10;&#9;&#9;&#9;&#9;C533.563,312.623,532.941,312.971,532.312,313.396z" style="fill:#685A56;"/>
		</g>
		<g>
			<path d="M504.642,313.396c0.637-1.377,2.185-2.408,3.855-2.349c0.818,0.048,1.614,0.295,2.27,0.729&#10;&#9;&#9;&#9;&#9;c0.338,0.197,0.616,0.478,0.908,0.721c0.254,0.291,0.499,0.583,0.708,0.898c-0.359-0.151-0.677-0.332-0.996-0.501&#10;&#9;&#9;&#9;&#9;c-0.338-0.134-0.648-0.308-0.974-0.424c-0.647-0.25-1.297-0.398-1.945-0.426c-0.65-0.042-1.297,0.105-1.938,0.333&#10;&#9;&#9;&#9;&#9;C505.892,312.623,505.271,312.971,504.642,313.396z" style="fill:#685A56;"/>
		</g>
		<path d="M494.96,313.676c0,0,23.905-6.587,27.165-21.147c5.424,11.805,17.819,19.795,27.165,20.964&#10;&#9;&#9;&#9;c0,0,3.154-33.704-25.821-32.646C494.493,281.904,495.237,306.772,494.96,313.676z" style="fill:#685A56;"/>
		<path d="M520.818,282.641c0,0-3.647-6.401-2.136-7.319c1.511-0.918,2.792,5.641,2.792,5.641&#10;&#9;&#9;&#9;s0.162-6.473,2.26-5.729C525.833,275.977,523.542,282.877,520.818,282.641z" style="fill:#685A56;"/>
		<path d="M497.084,403.928c0,1.173-0.951,2.124-2.124,2.124c-1.173,0-2.124-0.951-2.124-2.124&#10;&#9;&#9;&#9;c0-1.173,0.951-2.124,2.124-2.124C496.133,401.804,497.084,402.755,497.084,403.928z" style="fill:#FFFFFF;"/>
		<path d="M498.009,376.903c1.056,0.51,1.499,1.781,0.989,2.837c-0.51,1.056-1.78,1.499-2.837,0.989&#10;&#9;&#9;&#9;c-1.056-0.51-1.499-1.781-0.989-2.837C495.682,376.835,496.952,376.392,498.009,376.903z" style="fill:#FFFFFF;"/>
		<path d="M539.178,402.015c1.057,0.51,1.499,1.78,0.989,2.837c-0.51,1.056-1.781,1.499-2.837,0.989&#10;&#9;&#9;&#9;c-1.056-0.51-1.499-1.781-0.989-2.837C536.852,401.948,538.122,401.505,539.178,402.015z" style="fill:#FFFFFF;"/>
		<path d="M522.243,389.03c1.057,0.51,1.499,1.781,0.989,2.837c-0.51,1.056-1.781,1.499-2.837,0.989&#10;&#9;&#9;&#9;c-1.056-0.51-1.499-1.781-0.989-2.837C519.917,388.963,521.187,388.52,522.243,389.03z" style="fill:#FFFFFF;"/>
		<path d="M541.401,372.241c1.056,0.51,1.499,1.781,0.989,2.837c-0.51,1.056-1.78,1.499-2.837,0.989&#10;&#9;&#9;&#9;c-1.056-0.51-1.499-1.78-0.989-2.837C539.074,372.174,540.344,371.731,541.401,372.241z" style="fill:#FFFFFF;"/>
		<path d="M557.774,391.242c1.057,0.51,1.499,1.78,0.989,2.837c-0.51,1.057-1.781,1.499-2.837,0.989&#10;&#9;&#9;&#9;c-1.056-0.51-1.499-1.78-0.989-2.837C555.448,391.174,556.718,390.731,557.774,391.242z" style="fill:#FFFFFF;"/>
	</g>
	<g>
		<path d="M637.973,106.735c-1.922,4.02-1.779,8.674-2.568,13.06c-2.355,13.105-12.707,23.001-20.695,33.653&#10;&#9;&#9;&#9;c-1.589,2.119-3.133,4.373-3.699,6.96s0.057,5.6,2.162,7.207c-0.218-2.278,0.974-4.508,2.63-6.088&#10;&#9;&#9;&#9;c1.656-1.579,3.741-2.619,5.791-3.635c-2.238,2.444-4.112,5.478-4.136,8.792c-0.039,5.281,4.453,9.387,8.783,12.41&#10;&#9;&#9;&#9;c9.708,6.778,21.256,12.056,33.03,10.81c7.38-0.781,14.266-4.069,20.617-7.909c7.06-4.268,9.293-12.661,11.068-20.296&#10;&#9;&#9;&#9;c3.076-13.238,2.733-26.858,2.511-40.35c-0.077-4.671-2.489-7.848-4.736-12.044c-3.278-6.122-10.069-9.739-16.924-10.85&#10;&#9;&#9;&#9;c-6.855-1.111-13.859-0.063-20.704,1.103C646.393,100.359,640.034,102.424,637.973,106.735z" style="fill:#B75C5C;"/>
		<path d="M667.761,202.472c23.43,0.827,26.982-18.497,26.831-31.075c-6.992-5.428-16.165-9.161-28.186-9.161&#10;&#9;&#9;&#9;c-11.995,0-21.487,3.716-28.957,9.126C637.229,178.969,639.02,201.458,667.761,202.472z" style="fill:#E5B5A3;"/>
		<path d="M694.592,171.397c0.151,12.578-3.4,31.902-26.831,31.075c-28.741-1.014-30.532-23.503-30.312-31.11&#10;&#9;&#9;&#9;c-20.056,14.523-25.513,41.276-25.513,41.276h104.435C716.371,212.639,713.31,185.928,694.592,171.397z" style="fill:#373C44;"/>
		
			<ellipse ry="8.201" rx="8.201" cy="117.79" cx="634.338" style="fill:#CE8282;" transform="matrix(0.2306 -0.9731 0.9731 0.2306 373.4669 707.8794)"/>
		
			<ellipse ry="8.201" rx="8.201" cy="117.79" cx="695.23" style="fill:#CE8282;" transform="matrix(0.2306 -0.9731 0.9731 0.2306 420.3191 767.1303)"/>
		<path d="M675.373,147.56l-1.386-18.216l-14.223,1.952l-2.324,26.629&#10;&#9;&#9;&#9;C662.134,157.362,669.779,155.205,675.373,147.56z" style="fill:#D19582;"/>
		<path d="M647.445,108.483c16.371-3.576,19.622-19.833,26.937-21.783&#10;&#9;&#9;&#9;c-1.845,3.229,3.879,22.836,19.085,22.839c-0.02-1.803-0.083-3.575-0.168-5.277c-1.455-29.107-25.157-28.677-25.157-28.677&#10;&#9;&#9;&#9;s-31.086-2.389-31.496,33.482C639.316,109.53,642.83,109.491,647.445,108.483z" style="fill:#B75C5C;"/>
		<path d="M674.382,86.7c-7.315,1.951-10.567,18.207-26.937,21.783c-4.615,1.008-8.13,1.047-10.799,0.584&#10;&#9;&#9;&#9;c-0.003,0.306-0.01,0.608-0.01,0.919c-0.265,4.359-0.07,5.668,0.411,10.011c0.953,8.605,5.066,16.095,12.874,20.259&#10;&#9;&#9;&#9;c7.833,4.177,18.497,5.658,26.831,2.227c6.458-2.658,11.443-7.396,13.998-13.782c2.28-5.7,2.791-12.644,2.717-19.163&#10;&#9;&#9;&#9;C678.261,109.535,672.537,89.929,674.382,86.7z" style="fill:#E5B5A3;"/>
		<path d="M657.44,157.925l-1.023,11.719c0,0,0.418,5.857,9.901,6.972c9.482,1.115,10.598-8.785,10.598-8.785&#10;&#9;&#9;&#9;l-1.542-20.271C669.779,155.205,662.134,157.362,657.44,157.925z" style="fill:#E5B5A3;"/>
		<path d="M653.419,115.841c0,1.607-0.652,2.911-1.455,2.911c-0.804,0-1.455-1.303-1.455-2.911&#10;&#9;&#9;&#9;c0-1.608,0.652-2.911,1.455-2.911C652.768,112.93,653.419,114.234,653.419,115.841z" style="fill:#373C44;"/>
		<path d="M680.36,116.335c0,1.608-0.652,2.911-1.455,2.911c-0.804,0-1.455-1.303-1.455-2.911&#10;&#9;&#9;&#9;c0-1.608,0.652-2.911,1.455-2.911C679.709,113.424,680.36,114.727,680.36,116.335z" style="fill:#373C44;"/>
		<g>
			<path d="M665.232,117.79c-0.585,0.359-1.158,0.711-1.697,1.073c-0.509,0.345-1.097,0.821-1.122,1.183&#10;&#9;&#9;&#9;&#9;c-0.018,0.155,0.067,0.332,0.314,0.539c0.21,0.203,0.451,0.354,0.717,0.442c0.532,0.165,1.197,0.016,1.788-0.326&#10;&#9;&#9;&#9;&#9;c-0.388,0.551-1.093,1.009-1.904,0.9c-0.399-0.043-0.756-0.245-1.057-0.472c-0.276-0.191-0.653-0.627-0.604-1.151&#10;&#9;&#9;&#9;&#9;c0.071-0.507,0.382-0.83,0.66-1.063c0.297-0.227,0.598-0.42,0.92-0.559C663.879,118.056,664.548,117.877,665.232,117.79z" style="fill:#373C44;"/>
		</g>
		<g>
			<path d="M661.187,124.617c0.644,0.437,1.316,0.789,1.988,1.084c0.678,0.281,1.377,0.477,2.078,0.501&#10;&#9;&#9;&#9;&#9;c0.699,0.045,1.402-0.092,2.055-0.398c0.671-0.276,1.271-0.727,1.906-1.187c-0.21,0.323-0.44,0.646-0.7,0.946&#10;&#9;&#9;&#9;&#9;c-0.293,0.264-0.567,0.571-0.933,0.758c-0.677,0.457-1.532,0.671-2.361,0.629C663.544,126.855,662.076,125.886,661.187,124.617z" style="fill:#373C44;"/>
		</g>
		<circle r="3.063" cy="123.557" cx="650.509" style="fill:#CE8282;"/>
		<circle r="3.063" cy="124.936" cx="678.905" style="fill:#CE8282;"/>
		<path d="M669.214,77.563c0,0-2.245-7.958,0-8.347c2.245-0.389,1.357,6.55,1.357,6.55&#10;&#9;&#9;&#9;s1.473-4.409,3.614-3.241S672.03,77.539,669.214,77.563z" style="fill:#B75C5C;"/>
	</g>
	<g>
		<path d="M613.218,411.606c0,0,9.722-47.702,51.552-47.702c41.83,0,47.287,47.702,47.287,47.702H613.218z" style="fill:#C15252;"/>
		<circle r="7.761" cy="321.84" cx="634.42" style="fill:#CE8282;"/>
		<circle r="7.761" cy="321.84" cx="692.049" style="fill:#CE8282;"/>
		<path d="M673.256,350.015l-1.312-17.24l-13.461,1.847l-2.199,25.202&#10;&#9;&#9;&#9;C660.727,359.291,667.962,357.25,673.256,350.015z" style="fill:#D19582;"/>
		<path d="M636.596,314.454c-0.251,4.126-0.066,5.364,0.389,9.475c0.902,8.143,4.795,15.233,12.184,19.173&#10;&#9;&#9;&#9;c7.413,3.953,17.506,5.355,25.394,2.108c6.111-2.516,10.83-7,13.248-13.044c2.755-6.887,2.784-15.694,2.412-23.13&#10;&#9;&#9;&#9;c-1.377-27.548-23.809-27.14-23.809-27.14S636.484,279.589,636.596,314.454z" style="fill:#E5B5A3;"/>
		<path d="M656.284,359.824l-0.968,11.091c0,0,0.396,5.543,9.37,6.599c8.974,1.056,10.03-8.314,10.03-8.314&#10;&#9;&#9;&#9;l-1.46-19.185C667.962,357.25,660.727,359.291,656.284,359.824z" style="fill:#E5B5A3;"/>
		<path d="M652.479,319.995c0,1.521-0.617,2.755-1.377,2.755s-1.377-1.233-1.377-2.755&#10;&#9;&#9;&#9;c0-1.521,0.617-2.755,1.377-2.755S652.479,318.474,652.479,319.995z" style="fill:#373C44;"/>
		<path d="M677.976,320.462c0,1.521-0.617,2.755-1.377,2.755c-0.761,0-1.377-1.233-1.377-2.755&#10;&#9;&#9;&#9;s0.617-2.755,1.377-2.755C677.36,317.707,677.976,318.941,677.976,320.462z" style="fill:#373C44;"/>
		<g>
			<path d="M663.658,321.84c-0.551,0.347-1.09,0.685-1.598,1.029c-0.48,0.327-1.032,0.782-1.049,1.108&#10;&#9;&#9;&#9;&#9;c-0.016,0.137,0.057,0.298,0.29,0.494c0.196,0.191,0.421,0.333,0.669,0.417c0.496,0.157,1.125,0.025,1.689-0.293&#10;&#9;&#9;&#9;&#9;c-0.362,0.527-1.03,0.969-1.805,0.867c-0.382-0.039-0.722-0.232-1.01-0.447c-0.262-0.181-0.626-0.6-0.579-1.106&#10;&#9;&#9;&#9;&#9;c0.069-0.489,0.367-0.797,0.632-1.018c0.283-0.215,0.569-0.398,0.876-0.528C662.373,322.079,663.009,321.914,663.658,321.84z" style="fill:#373C44;"/>
		</g>
		<g>
			<path d="M659.83,328.301c0.615,0.408,1.253,0.736,1.888,1.013c0.642,0.262,1.301,0.446,1.96,0.468&#10;&#9;&#9;&#9;&#9;c0.658,0.043,1.319-0.085,1.937-0.37c0.634-0.257,1.205-0.679,1.811-1.11c-0.196,0.309-0.412,0.617-0.656,0.903&#10;&#9;&#9;&#9;&#9;c-0.276,0.252-0.535,0.545-0.882,0.724c-0.641,0.436-1.455,0.641-2.243,0.602C662.053,330.439,660.661,329.513,659.83,328.301z" style="fill:#373C44;"/>
		</g>
		<path d="M651.603,328.431c0,1.601-1.298,2.899-2.899,2.899s-2.899-1.298-2.899-2.899&#10;&#9;&#9;&#9;s1.298-2.899,2.899-2.899S651.603,326.83,651.603,328.431z" style="fill:#CE8282;"/>
		<path d="M680.876,327.854c0,1.601-1.298,2.899-2.899,2.899c-1.601,0-2.899-1.298-2.899-2.899&#10;&#9;&#9;&#9;c0-1.601,1.298-2.899,2.899-2.899C679.578,324.955,680.876,326.253,680.876,327.854z" style="fill:#CE8282;"/>
		<g>
			<path d="M673.593,312.927c0.637-1.377,2.185-2.408,3.855-2.349c0.818,0.048,1.614,0.295,2.271,0.729&#10;&#9;&#9;&#9;&#9;c0.339,0.197,0.616,0.479,0.908,0.721c0.254,0.291,0.499,0.583,0.708,0.898c-0.359-0.151-0.677-0.332-0.996-0.501&#10;&#9;&#9;&#9;&#9;c-0.338-0.134-0.648-0.308-0.974-0.424c-0.647-0.25-1.297-0.398-1.945-0.426c-0.651-0.042-1.297,0.105-1.938,0.333&#10;&#9;&#9;&#9;&#9;C674.844,312.153,674.222,312.502,673.593,312.927z" style="fill:#373C44;"/>
		</g>
		<g>
			<path d="M645.922,312.927c0.637-1.377,2.185-2.408,3.855-2.349c0.818,0.048,1.614,0.295,2.271,0.729&#10;&#9;&#9;&#9;&#9;c0.339,0.197,0.616,0.479,0.908,0.721c0.254,0.291,0.499,0.583,0.708,0.898c-0.359-0.151-0.677-0.332-0.996-0.501&#10;&#9;&#9;&#9;&#9;c-0.338-0.134-0.648-0.308-0.974-0.424c-0.647-0.25-1.297-0.398-1.945-0.426c-0.65-0.042-1.297,0.105-1.938,0.333&#10;&#9;&#9;&#9;&#9;C647.173,312.153,646.552,312.502,645.922,312.927z" style="fill:#373C44;"/>
		</g>
		<path d="M636.596,314.454c-0.028,0.334,3.732-16.549,8.534-18.883c-2.182,4.069-2.949,4.651-2.949,4.651&#10;&#9;&#9;&#9;s7.462-0.873,10.298-5.965c0.799,2.91-1.377,5.238-1.377,5.238s13.503,6.949,22.155-2.182c1.46,2.764,0,5.092,0,5.092&#10;&#9;&#9;&#9;s8.339,0.018,9.994-5.383c5.674,8.73,7.14,17.058,7.14,17.058s3.385-32.758-25.374-32.213&#10;&#9;&#9;&#9;C635.498,282.426,637.033,309.173,636.596,314.454z" style="fill:#373C44;"/>
		<path d="M667.427,282.529c0,0-1.567-5.604,0.435-6.104c2.001-0.5,0.4,6.104,0.4,6.104&#10;&#9;&#9;&#9;s1.401-5.704,2.702-4.203C672.265,279.827,670.094,284.631,667.427,282.529z" style="fill:#373C44;"/>
	</g>
</g>
<g id="DESIGNED_BY_FREEPIK">
	<g>
		<g id="XMLID_319_">
			<g id="XMLID_338_">
				<path d="M385.104,465.465c-0.432,0.443-0.803,0.931-1.108,1.453l-0.465-0.241&#10;&#9;&#9;&#9;&#9;&#9;c-0.067-0.298-0.349-0.503-0.659-0.466c-0.331,0.039-0.568,0.339-0.529,0.67c0.039,0.331,0.339,0.568,0.67,0.529&#10;&#9;&#9;&#9;&#9;&#9;c0.066-0.008,0.127-0.026,0.184-0.052l0.451,0.234c-0.251,0.554-0.433,1.139-0.539,1.744l0.747,0.132&#10;&#9;&#9;&#9;&#9;&#9;c0.23-1.306,0.85-2.507,1.792-3.473L385.104,465.465z" style="fill:#1D262D;" id="XMLID_346_"/>
				<path d="M390.592,463.163c-0.171,0-0.341,0.006-0.51,0.017l-0.074-0.626&#10;&#9;&#9;&#9;&#9;&#9;c0.188-0.149,0.296-0.389,0.266-0.645c-0.046-0.393-0.402-0.674-0.795-0.628c-0.393,0.046-0.674,0.402-0.628,0.795&#10;&#9;&#9;&#9;&#9;&#9;c0.03,0.254,0.189,0.461,0.404,0.564l0.074,0.624c-0.714,0.116-1.403,0.332-2.06,0.646l0.327,0.684&#10;&#9;&#9;&#9;&#9;&#9;c0.934-0.447,1.942-0.673,2.995-0.673c0.496,0,0.993,0.053,1.475,0.158l0.161-0.741&#10;&#9;&#9;&#9;&#9;&#9;C391.692,463.222,391.142,463.163,390.592,463.163z" style="fill:#1D262D;" id="XMLID_345_"/>
				<path d="M397.194,465.711c0.331-0.04,0.566-0.341,0.526-0.672&#10;&#9;&#9;&#9;&#9;&#9;c-0.04-0.331-0.341-0.566-0.672-0.526c-0.309,0.038-0.535,0.304-0.53,0.609l-0.416,0.363c-0.418-0.43-0.889-0.813-1.408-1.139&#10;&#9;&#9;&#9;&#9;&#9;l-0.404,0.641c1.134,0.715,2.021,1.726,2.563,2.925l0.69-0.313c-0.251-0.554-0.567-1.072-0.942-1.545l0.402-0.351&#10;&#9;&#9;&#9;&#9;&#9;C397.065,465.716,397.129,465.719,397.194,465.711z" style="fill:#1D262D;" id="XMLID_344_"/>
				<path d="M390.044,473.372c-0.386,0.023-0.775,0.035-1.157,0.035&#10;&#9;&#9;&#9;&#9;&#9;c-0.88,0-1.733-0.061-2.478-0.179c-0.39-0.062-0.846-0.155-1.27-0.292c1.046,1.861,3.069,3.125,5.388,3.125&#10;&#9;&#9;&#9;&#9;&#9;c2.855,0,5.262-1.916,5.95-4.504c-0.682,0.449-1.505,0.825-2.459,1.123C392.839,473.047,391.463,473.286,390.044,473.372z" style="fill:#1D262D;" id="XMLID_343_"/>
				<path d="M390.592,464.68c-3.352,0-6.08,2.666-6.08,5.943&#10;&#9;&#9;&#9;&#9;&#9;c0,0.426,0.046,0.849,0.137,1.261c0.673,0.483,2.706,0.89,5.348,0.731c2.879-0.173,5.297-0.957,6.672-2.159&#10;&#9;&#9;&#9;&#9;&#9;c-0.006-0.195-0.021-0.39-0.045-0.582C396.244,466.913,393.65,464.68,390.592,464.68z M388.432,471.194&#10;&#9;&#9;&#9;&#9;&#9;c-1.02,0-1.85-0.83-1.85-1.85c0-1.02,0.83-1.85,1.85-1.85c1.02,0,1.85,0.83,1.85,1.85&#10;&#9;&#9;&#9;&#9;&#9;C390.282,470.365,389.452,471.194,388.432,471.194z M393.17,470.286c-0.75,0-1.36-0.61-1.36-1.36s0.61-1.361,1.36-1.361&#10;&#9;&#9;&#9;&#9;&#9;c0.75,0,1.361,0.61,1.361,1.361S393.92,470.286,393.17,470.286z" style="fill:#1D262D;" id="XMLID_339_"/>
			</g>
			<path d="M406.595,466.547c-0.295-0.116-0.805-0.309-1.382-0.237&#10;&#9;&#9;&#9;&#9;c-0.551,0.069-0.844,0.341-0.844,1.007v0.866h2.228v1.717h-2.228v5.455h-1.932v-5.455h-1.34v-1.717h1.34v-0.888&#10;&#9;&#9;&#9;&#9;c0-1.68,0.896-2.783,2.568-2.783c0.643,0,1.157,0.122,1.59,0.308L406.595,466.547z" style="fill:#1D262D;" id="XMLID_336_"/>
			<path d="M411.298,469.879c-0.177-0.03-0.358-0.046-0.526-0.046&#10;&#9;&#9;&#9;&#9;c-0.896,0-1.51,0.548-1.51,1.614v3.908h-1.932v-7.172h1.873v0.785c0.451-0.673,1.14-0.977,2.021-0.977&#10;&#9;&#9;&#9;&#9;c0.414,0,0.848,0.128,1.094,0.337L411.298,469.879z" style="fill:#1D262D;" id="XMLID_334_"/>
			<path d="M418.965,471.757c0,0.222-0.015,0.489-0.037,0.651h-5.085&#10;&#9;&#9;&#9;&#9;c0.207,1.036,0.933,1.488,1.843,1.488c0.622,0,1.295-0.252,1.813-0.688l1.133,1.243c-0.814,0.748-1.85,1.088-3.057,1.088&#10;&#9;&#9;&#9;&#9;c-2.198,0-3.723-1.495-3.723-3.753c0-2.258,1.48-3.797,3.627-3.797C417.544,467.99,418.958,469.522,418.965,471.757z&#10;&#9;&#9;&#9;&#9; M413.851,471.091h3.175c-0.177-0.918-0.733-1.436-1.562-1.436C414.554,469.655,414.021,470.203,413.851,471.091z" style="fill:#1D262D;" id="XMLID_331_"/>
			<path d="M426.618,471.757c0,0.222-0.015,0.489-0.037,0.651h-5.085&#10;&#9;&#9;&#9;&#9;c0.207,1.036,0.932,1.488,1.843,1.488c0.622,0,1.295-0.252,1.814-0.688l1.132,1.243c-0.814,0.748-1.85,1.088-3.057,1.088&#10;&#9;&#9;&#9;&#9;c-2.198,0-3.723-1.495-3.723-3.753c0-2.258,1.48-3.797,3.627-3.797C425.197,467.99,426.611,469.522,426.618,471.757z&#10;&#9;&#9;&#9;&#9; M421.504,471.091h3.175c-0.178-0.918-0.733-1.436-1.562-1.436C422.207,469.655,421.674,470.203,421.504,471.091z" style="fill:#1D262D;" id="XMLID_328_"/>
			<path d="M434.964,471.764c0,2.154-1.495,3.775-3.471,3.775&#10;&#9;&#9;&#9;&#9;c-0.962,0-1.643-0.378-2.109-0.933v3.708h-1.924v-10.133h1.887v0.792c0.466-0.585,1.155-0.984,2.139-0.984&#10;&#9;&#9;&#9;&#9;C433.469,467.99,434.964,469.61,434.964,471.764z M429.287,471.764c0,1.132,0.747,1.976,1.843,1.976&#10;&#9;&#9;&#9;&#9;c1.14,0,1.85-0.881,1.85-1.976c0-1.095-0.71-1.976-1.85-1.976C430.035,469.788,429.287,470.632,429.287,471.764z" style="fill:#1D262D;" id="XMLID_325_"/>
			<path d="M438.068,465.836c0,0.696-0.54,1.229-1.236,1.229&#10;&#9;&#9;&#9;&#9;c-0.696,0-1.229-0.533-1.229-1.229c0-0.696,0.533-1.243,1.229-1.243C437.527,464.592,438.068,465.14,438.068,465.836z&#10;&#9;&#9;&#9;&#9; M437.809,475.354h-1.932v-7.172h1.932V475.354z" style="fill:#1D262D;" id="XMLID_322_"/>
			<path d="M441.032,470.736l2.701-2.554h2.368l-3.479,3.375l3.501,3.797h-2.376&#10;&#9;&#9;&#9;&#9;l-2.716-2.901v2.901H439.1v-10.658h1.932V470.736z" style="fill:#1D262D;" id="XMLID_320_"/>
		</g>
		<g>
			<path d="M309.412,475.289v-1.055c-0.527,0.718-1.391,1.23-2.387,1.23c-1.846,0-3.149-1.406-3.149-3.706&#10;&#9;&#9;&#9;&#9;c0-2.256,1.289-3.721,3.149-3.721c0.952,0,1.816,0.469,2.387,1.245v-3.765h1.099v9.77H309.412z M309.412,473.37v-3.208&#10;&#9;&#9;&#9;&#9;c-0.395-0.615-1.245-1.143-2.124-1.143c-1.421,0-2.27,1.172-2.27,2.739c0,1.567,0.85,2.724,2.27,2.724&#10;&#9;&#9;&#9;&#9;C308.168,474.483,309.017,473.986,309.412,473.37z" style="fill:#1D262D;"/>
			<path d="M311.932,471.744c0-2.051,1.465-3.706,3.486-3.706c2.139,0,3.398,1.67,3.398,3.794v0.279h-5.727&#10;&#9;&#9;&#9;&#9;c0.088,1.333,1.026,2.446,2.549,2.446c0.805,0,1.626-0.322,2.182-0.894l0.527,0.718c-0.703,0.703-1.655,1.084-2.812,1.084&#10;&#9;&#9;&#9;&#9;C313.44,475.465,311.932,473.956,311.932,471.744z M315.404,468.947c-1.509,0-2.256,1.274-2.315,2.358h4.643&#10;&#9;&#9;&#9;&#9;C317.718,470.25,317.015,468.947,315.404,468.947z" style="fill:#1D262D;"/>
			<path d="M319.607,474.351l0.571-0.791c0.469,0.542,1.362,1.011,2.329,1.011c1.084,0,1.67-0.513,1.67-1.216&#10;&#9;&#9;&#9;&#9;c0-1.714-4.38-0.659-4.38-3.281c0-1.098,0.952-2.036,2.636-2.036c1.201,0,2.051,0.454,2.622,1.026l-0.513,0.762&#10;&#9;&#9;&#9;&#9;c-0.424-0.513-1.201-0.894-2.109-0.894c-0.967,0-1.567,0.483-1.567,1.113c0,1.552,4.38,0.527,4.38,3.281&#10;&#9;&#9;&#9;&#9;c0,1.187-0.952,2.138-2.783,2.138C321.306,475.465,320.325,475.113,319.607,474.351z" style="fill:#1D262D;"/>
			<path d="M326.477,466.471c0-0.41,0.337-0.747,0.732-0.747c0.41,0,0.747,0.337,0.747,0.747&#10;&#9;&#9;&#9;&#9;c0,0.41-0.337,0.732-0.747,0.732C326.814,467.203,326.477,466.881,326.477,466.471z M326.667,475.289v-7.075h1.099v7.075H326.667&#10;&#9;&#9;&#9;&#9;z" style="fill:#1D262D;"/>
			<path d="M329.582,477.105l0.556-0.82c0.586,0.703,1.289,0.967,2.3,0.967c1.172,0,2.27-0.571,2.27-2.124&#10;&#9;&#9;&#9;&#9;v-1.011c-0.513,0.718-1.377,1.26-2.373,1.26c-1.845,0-3.149-1.377-3.149-3.662c0-2.27,1.289-3.677,3.149-3.677&#10;&#9;&#9;&#9;&#9;c0.952,0,1.802,0.469,2.373,1.245v-1.069h1.099v6.87c0,2.344-1.641,3.076-3.369,3.076&#10;&#9;&#9;&#9;&#9;C331.237,478.16,330.417,477.926,329.582,477.105z M334.709,473.253v-3.091c-0.381-0.615-1.23-1.143-2.109-1.143&#10;&#9;&#9;&#9;&#9;c-1.421,0-2.27,1.128-2.27,2.695c0,1.553,0.849,2.695,2.27,2.695C333.478,474.41,334.328,473.868,334.709,473.253z" style="fill:#1D262D;"/>
			<path d="M342.413,475.289v-4.629c0-1.245-0.63-1.641-1.582-1.641c-0.865,0-1.685,0.527-2.095,1.099v5.17&#10;&#9;&#9;&#9;&#9;h-1.099v-7.075h1.099v1.025c0.498-0.586,1.465-1.201,2.519-1.201c1.48,0,2.256,0.747,2.256,2.285v4.966H342.413z" style="fill:#1D262D;"/>
			<path d="M344.932,471.744c0-2.051,1.465-3.706,3.486-3.706c2.138,0,3.398,1.67,3.398,3.794v0.279h-5.727&#10;&#9;&#9;&#9;&#9;c0.088,1.333,1.025,2.446,2.549,2.446c0.806,0,1.626-0.322,2.183-0.894l0.527,0.718c-0.703,0.703-1.655,1.084-2.812,1.084&#10;&#9;&#9;&#9;&#9;C346.441,475.465,344.932,473.956,344.932,471.744z M348.404,468.947c-1.509,0-2.256,1.274-2.314,2.358h4.643&#10;&#9;&#9;&#9;&#9;C350.718,470.25,350.015,468.947,348.404,468.947z" style="fill:#1D262D;"/>
			<path d="M358.35,475.289v-1.055c-0.527,0.718-1.392,1.23-2.388,1.23c-1.845,0-3.149-1.406-3.149-3.706&#10;&#9;&#9;&#9;&#9;c0-2.256,1.289-3.721,3.149-3.721c0.952,0,1.817,0.469,2.388,1.245v-3.765h1.098v9.77H358.35z M358.35,473.37v-3.208&#10;&#9;&#9;&#9;&#9;c-0.396-0.615-1.245-1.143-2.124-1.143c-1.421,0-2.27,1.172-2.27,2.739c0,1.567,0.849,2.724,2.27,2.724&#10;&#9;&#9;&#9;&#9;C357.105,474.483,357.954,473.986,358.35,473.37z" style="fill:#1D262D;"/>
			<path d="M364.692,475.289v-9.77h1.099v3.765c0.572-0.776,1.421-1.245,2.388-1.245&#10;&#9;&#9;&#9;&#9;c1.845,0,3.149,1.465,3.149,3.721c0,2.299-1.304,3.706-3.149,3.706c-0.996,0-1.86-0.513-2.388-1.23v1.055H364.692z&#10;&#9;&#9;&#9;&#9; M367.9,474.483c1.436,0,2.286-1.157,2.286-2.724c0-1.568-0.85-2.739-2.286-2.739c-0.864,0-1.728,0.527-2.109,1.143v3.208&#10;&#9;&#9;&#9;&#9;C366.171,473.986,367.036,474.483,367.9,474.483z" style="fill:#1D262D;"/>
			<path d="M372.529,477.061c0.161,0.073,0.425,0.117,0.601,0.117c0.483,0,0.806-0.161,1.055-0.747&#10;&#9;&#9;&#9;&#9;l0.469-1.069l-2.959-7.148h1.187l2.358,5.8l2.344-5.8h1.201l-3.545,8.51c-0.425,1.025-1.143,1.421-2.08,1.435&#10;&#9;&#9;&#9;&#9;c-0.234,0-0.601-0.044-0.806-0.103L372.529,477.061z" style="fill:#1D262D;"/>
		</g>
	</g>
</g>
</svg>